v 0 -0.525731 0.850651
v 0.850651 0 0.525731
v 0.850651 0 -0.525731
v -0.850651 0 -0.525731
v -0.850651 0 0.525731
v -0.525731 0.850651 0
v 0.525731 0.850651 0
v 0.525731 -0.850651 0
v -0.525731 -0.850651 0
v 0 -0.525731 -0.850651
v 0 0.525731 -0.850651
v 0 0.525731 0.850651
vt 0.134512 0.425204
vt 0 0
vt 0.419827 0.598369
vt 0.134512 0.425204
vt 0.419827 0.598369
vt 0.327354 0.392568
vt 0.327354 0.392568
vt 0.484887 0.775579
vt 0.134512 0.425204
vt 0.419827 0.598369
vt 0.513894 0.689824
vt 0.327354 0.392568
vt 0.117171 0.754296
vt 0.134512 0.425204
vt 0.484887 0.775579
vt 0.513894 0.689824
vt 0.50044 1
vt 0.327354 0.392568
vt 0.299629 0.868349
vt 0.117171 0.754296
vt 0.484887 0.775579
vt 0.134512 0.425204
vt 0.117171 0.754296
vt 0 0
vt 0.50044 1
vt 0.299629 0.868349
vt 0.484887 0.775579
vt 0.484887 0.775579
vt 0.327354 0.392568
vt 0.50044 1
vt 0 0.233119
vt 0.142431 0.984585
vt 0.478929 0.518989
vt 0.302954 0.890904
vt 0.478929 0.518989
vt 0.142431 0.984585
vt 0.766881 1
vt 0 0.233119
vt 0.478929 0.518989
vt 0.142431 0.984585
vt 0.0754495 0.428318
vt 0.302954 0.890904
vt 0.0754495 0.428318
vt 0.425249 0
vt 0.302954 0.890904
vt 0.606398 0.48935
vt 0.302954 0.890904
vt 0.425249 0
vt 0.734913 0.147449
vt 0.606398 0.48935
vt 0.425249 0
vt 0.478929 0.518989
vt 0.302954 0.890904
vt 0.606398 0.48935
vt 0.606398 0.48935
vt 0.766881 1
vt 0.478929 0.518989
vt 0.606398 0.48935
vt 0.734913 0.147449
vt 0.766881 1
f 2/1 3/2 7/3
f 2/4 8/5 3/6
f 4/7 5/8 6/9
f 5/10 4/11 9/12
f 7/13 6/14 12/15
f 6/16 7/17 11/18
f 10/19 11/20 3/21
f 11/22 10/23 4/24
f 8/25 9/26 10/27
f 9/28 8/29 1/30
f 12/31 1/32 2/33
f 1/34 12/35 5/36
f 7/37 3/38 11/39
f 2/40 7/41 12/42
f 4/43 6/44 11/45
f 6/46 5/47 12/48
f 3/49 8/50 10/51
f 8/52 2/53 1/54
f 4/55 10/56 9/57
f 5/58 9/59 1/60
